<?xml version="1.0" encoding="utf-8"?>
<!-- Generator: Adobe Illustrator 25.2.1, SVG Export Plug-In . SVG Version: 6.00 Build 0)  -->
<svg version="1.1" xmlns="http://www.w3.org/2000/svg" xmlns:xlink="http://www.w3.org/1999/xlink" x="0px" y="0px"
	 viewBox="0 0 400 462.1" style="enable-background:new 0 0 400 462.1;" xml:space="preserve">
<style type="text/css">
	.st0{fill:#EBE4E4;}
	.st1{fill:#202023;}
</style>
<g id="Descriptor">
</g>
<g id="Acrónimo">
	<g>
		<g>
			<path class="st1" d="M28.6,414.4V452H22v-4.4c-1.9,3-5.1,4.7-9.1,4.7c-7.7,0-12.9-5.7-12.9-13.9c0-8.2,5.2-13.7,12.8-13.7
				c4.2,0,7.3,1.7,9.3,4.7v-14.9H28.6z M22,438.5c0-4.9-3.1-8.3-7.7-8.3c-4.5,0-7.6,3.4-7.7,8.3c0.1,4.9,3.1,8.3,7.7,8.3
				C18.9,446.8,22,443.4,22,438.5z"/>
			<path class="st1" d="M103.9,443.2l3.8,3.5c-3.1,3.7-7.1,5.5-11.9,5.5c-8.5,0-14.2-5.5-14.2-13.8c0-8,5.3-13.7,13.7-13.8
				c7.5-0.1,12.6,4.6,13,12.1l-19.3,5.5c1.3,2.9,3.9,4.7,7.3,4.7C99.2,447,101.8,445.7,103.9,443.2z M88.3,437.9l13.6-3.9
				c-1.1-2.8-3.2-4.1-6.2-4.1C91.2,429.9,88.4,432.7,88.3,437.9z"/>
			<path class="st1" d="M168.9,429.8c-2.1,0-3.6,0.7-3.6,2.4c0,4.6,14.3,2.2,14.3,11.9c0,5.5-4.9,8.2-10.7,8.2
				c-4.1,0-8.4-1.3-11.2-3.8l2.3-4.6c2.5,2.1,6.2,3.3,9.2,3.3c2.3,0,4-0.8,4-2.5c0-5-14.1-2.3-14.1-11.9c0-5.6,4.8-8.2,10.2-8.2
				c3.5,0,7.2,1.1,9.9,2.9l-2.4,4.8C174.2,430.7,171.2,429.8,168.9,429.8z"/>
			<path class="st1" d="M239.1,417.2c0,2.1-1.5,3.6-3.5,3.6c-2.1,0-3.5-1.5-3.5-3.6c0-2.1,1.5-3.6,3.5-3.6
				C237.6,413.5,239.1,415,239.1,417.2z M238.9,424.9V452h-6.6v-27.1H238.9z"/>
			<path class="st1" d="M318.8,424.9v24.5c0,7.7-5.6,12.7-14.2,12.7c-4.4,0-8.3-1.4-11.4-3.6l2.6-4.8c2.5,1.8,5.2,2.8,8.5,2.8
				c4.9,0,7.9-2.7,7.9-7v-3.2c-1.8,2.7-4.8,4.3-8.6,4.3c-7.2,0-12-5.3-12-13.1c0-7.6,4.8-12.9,11.8-12.9c3.9-0.1,6.9,1.5,8.8,4.3
				v-4.1H318.8z M312.3,437.7c0-4.6-2.9-7.7-7.2-7.7c-4.3,0-7.2,3.2-7.2,7.7c0.1,4.6,2.9,7.7,7.2,7.7
				C309.3,445.5,312.3,442.3,312.3,437.7z"/>
			<path class="st1" d="M400,435.1V452h-6.6v-15c0-3.8-2.3-6.1-6-6.1c-4.5,0.1-7.1,3.3-7.1,7.8V452h-6.6v-27.1h6.6v5.1
				c1.9-3.6,5.3-5.3,9.7-5.3C396.2,424.7,400,428.7,400,435.1z"/>
		</g>
		<g>
			<path class="st1" d="M187.3,358.9v-319L147.4,0h-39.9v345c-9.5-6.1-18.4-13.1-26.6-20.9V0H1.2v199.4c0,36.2,9.7,70.2,26.6,99.5
				V26.6h26.6v264.9v43.4c8.1,8.8,17,16.8,26.6,24c6.4,4.8,13.1,9.3,20.1,13.3c2.1,1.2,4.3,2.4,6.5,3.6
				c14.3,7.5,29.5,13.4,45.6,17.3L187.3,358.9z M160.7,345.6l-17,17c-3.2-1.1-6.4-2.3-9.6-3.7V26.6l26.6,26.6V345.6z"/>
			<path class="st1" d="M213.9,398.8h79.8v-345c9.5,6.1,18.4,13.1,26.6,20.9v324.1h26.6V239.3l13.3,13.3l13.3,13.3v132.9H400V252.6
				l-9.4-9.4l9.4-9.4v-34.4c0-36.2-9.7-70.2-26.6-99.5c-7.5-13-16.4-25.1-26.6-36c-8.1-8.8-17-16.8-26.6-24
				c-8.4-6.3-17.3-11.9-26.6-16.9c-24.1-12.7-51.1-21.1-79.8-23V398.8z M267,372.2h-26.6v-341c9.2,2.2,18.1,5.1,26.6,8.6V372.2z
				 M346.8,199.4v-92.1c16.8,26.7,26.6,58.3,26.6,92.1l0,26.6L346.8,199.4z"/>
		</g>
	</g>
</g>
</svg>
